<?xml version="1.0" encoding="utf-8"?>
<!-- Generator: Adobe Illustrator 21.0.2, SVG Export Plug-In . SVG Version: 6.00 Build 0)  -->
<svg version="1.1" id="Layer_1" xmlns="http://www.w3.org/2000/svg" xmlns:xlink="http://www.w3.org/1999/xlink" x="0px" y="0px"
	 viewBox="0 0 100 100" style="enable-background:new 0 0 100 100;" xml:space="preserve">
<style type="text/css">
	.st0{clip-path:url(#SVGID_2_);}
	.st1{clip-path:url(#SVGID_4_);fill:#FFFFFF;}
</style>
<g>
	<defs>
		<path id="SVGID_1_" d="M95.2,40.7c-1.9,8.2-6.3,15.7-12.7,21.6L49.7,92.2L17.4,62.3C11,56.4,6.7,48.9,4.8,40.7
			C3.4,34.8,4,31.5,4,31.5l0-0.2C5.2,16.9,15,6.4,27.2,6.4c9,0,16.9,5.7,20.7,14.8l1.8,4.3l1.8-4.3c3.7-9,12.1-14.8,21.3-14.8
			c12.2,0,22,10.4,23.3,25C96,31.5,96.6,34.8,95.2,40.7z M99.8,30.8C98.4,14.4,87,2.5,72.8,2.5c-9.5,0-18.2,5.2-23,13.6
			C44.9,7.6,36.6,2.5,27.2,2.5C13,2.5,1.6,14.4,0.2,30.8C0.1,31.6-0.4,35.4,1,41.6c2.1,9,6.9,17.1,13.8,23.6l34.8,32.3l35.4-32.3
			c7-6.5,11.8-14.6,13.8-23.6C100.4,35.4,99.9,31.6,99.8,30.8z"/>
	</defs>
	<clipPath id="SVGID_2_">
		<use xlink:href="#SVGID_1_"  style="overflow:visible;"/>
	</clipPath>
	<g class="st0">
		<defs>
			<rect id="SVGID_3_" x="-1215.4" y="-159.8" width="1384.6" height="3625.8"/>
		</defs>
		<clipPath id="SVGID_4_">
			<use xlink:href="#SVGID_3_"  style="overflow:visible;"/>
		</clipPath>
		<rect x="-19.2" y="-17.3" class="st1" width="138.5" height="134.6"/>
	</g>
</g>
</svg>
