<?xml version="1.0" encoding="utf-8"?>
<!-- Generator: Adobe Illustrator 21.0.2, SVG Export Plug-In . SVG Version: 6.00 Build 0)  -->
<svg version="1.1" id="Layer_1" xmlns="http://www.w3.org/2000/svg" xmlns:xlink="http://www.w3.org/1999/xlink" x="0px" y="0px"
	 viewBox="0 0 100 24.9" style="enable-background:new 0 0 100 24.9;" xml:space="preserve">
<style type="text/css">
	.st0{clip-path:url(#SVGID_2_);}
	.st1{clip-path:url(#SVGID_4_);fill:#FFFFFF;}
	.st2{clip-path:url(#SVGID_6_);}
	.st3{clip-path:url(#SVGID_8_);fill:#FFFFFF;}
	.st4{clip-path:url(#SVGID_10_);}
	.st5{clip-path:url(#SVGID_12_);fill:#FFFFFF;}
</style>
<g>
	<defs>
		<path id="SVGID_1_" d="M69.2,20.2c0.9,0,1.8-0.2,2.6-0.6c0.8-0.4,1.4-0.9,1.8-1.6l-1.4-1.3c-0.7,0.9-1.7,1.4-2.9,1.4
			c-0.8,0-1.5-0.3-2.1-0.8c-0.6-0.5-0.9-1.3-0.9-2.2h7.5v-1c0-1.8-0.4-3.2-1.3-4.2c-0.8-1-2-1.5-3.6-1.5c-1,0-1.9,0.2-2.7,0.7
			c-0.8,0.5-1.4,1.2-1.9,2.1c-0.4,0.9-0.7,1.9-0.7,3.1v0.3c0,1.7,0.5,3.1,1.5,4.1C66.2,19.6,67.5,20.2,69.2,20.2z M62.7,10.9l0-2.4
			c-0.2-0.1-0.5-0.1-0.9-0.1c-1.1,0-2,0.5-2.6,1.5l-0.1-1.3h-2.4v11.4h2.6v-7.8c0.4-0.9,1.2-1.4,2.4-1.4
			C62,10.8,62.4,10.8,62.7,10.9z M43.9,14.1v0.1c0,1.8,0.5,3.2,1.5,4.3c1,1.1,2.3,1.6,3.9,1.6c1.1,0,2-0.2,2.8-0.7
			c0.8-0.5,1.4-1.2,1.9-2.1c0.4-0.9,0.6-1.9,0.6-3l0-0.6c-0.1-1.6-0.6-3-1.6-3.9s-2.2-1.5-3.8-1.5c-1,0-2,0.2-2.8,0.7
			c-0.8,0.5-1.4,1.2-1.9,2.1C44.2,12,43.9,13,43.9,14.1z M29.2,4.6h-3.5v15.4h2.7v-5.1l-0.3-6.8l4.5,11.8h1.9l4.5-11.8l-0.3,6.8v5.1
			h2.7V4.6h-3.5l-4.4,11.8L29.2,4.6z M5.3,0H95c2.8,0,5,2.2,5,5v15c0,2.8-2.2,5-5,5H5.3c-2.8,0-5-2.2-5-5V5C0.3,2.2,2.5,0,5.3,0z"/>
	</defs>
	<clipPath id="SVGID_2_">
		<use xlink:href="#SVGID_1_"  style="overflow:visible;"/>
	</clipPath>
	<g class="st0">
		<defs>
			<rect id="SVGID_3_" x="-59.6" y="-300.9" width="571.8" height="518.6"/>
		</defs>
		<clipPath id="SVGID_4_">
			<use xlink:href="#SVGID_3_"  style="overflow:visible;"/>
		</clipPath>
		<rect x="-8" y="-8.3" class="st1" width="116.4" height="41.6"/>
	</g>
</g>
<g>
	<defs>
		<path id="SVGID_5_" d="M68.8,10.4c-0.7,0-1.3,0.2-1.7,0.7c-0.4,0.5-0.7,1.2-0.8,2.1h4.9V13c-0.1-0.9-0.3-1.5-0.7-1.9
			C70.1,10.6,69.6,10.4,68.8,10.4z"/>
	</defs>
	<clipPath id="SVGID_6_">
		<use xlink:href="#SVGID_5_"  style="overflow:visible;"/>
	</clipPath>
	<g class="st2">
		<defs>
			<rect id="SVGID_7_" x="-59.6" y="-300.9" width="571.8" height="518.6"/>
		</defs>
		<clipPath id="SVGID_8_">
			<use xlink:href="#SVGID_7_"  style="overflow:visible;"/>
		</clipPath>
		<rect x="58" y="2.1" class="st3" width="21.5" height="19.4"/>
	</g>
</g>
<g>
	<defs>
		<path id="SVGID_9_" d="M46.5,14.4c0,1.2,0.2,2.1,0.7,2.8c0.5,0.7,1.2,1,2,1c0.9,0,1.5-0.3,2-1c0.5-0.7,0.7-1.7,0.7-3
			c0-1.2-0.2-2.1-0.7-2.7c-0.5-0.7-1.2-1-2-1c-0.8,0-1.5,0.3-2,1C46.8,12,46.5,13,46.5,14.4z"/>
	</defs>
	<clipPath id="SVGID_10_">
		<use xlink:href="#SVGID_9_"  style="overflow:visible;"/>
	</clipPath>
	<g class="st4">
		<defs>
			<rect id="SVGID_11_" x="-59.6" y="-300.9" width="571.8" height="518.6"/>
		</defs>
		<clipPath id="SVGID_12_">
			<use xlink:href="#SVGID_11_"  style="overflow:visible;"/>
		</clipPath>
		<rect x="38.2" y="2.1" class="st5" width="22.1" height="24.4"/>
	</g>
</g>
</svg>
