<?xml version="1.0" encoding="utf-8"?>
<!-- Generator: Adobe Illustrator 21.0.2, SVG Export Plug-In . SVG Version: 6.00 Build 0)  -->
<svg version="1.1" id="Capa_1" xmlns="http://www.w3.org/2000/svg" xmlns:xlink="http://www.w3.org/1999/xlink" x="0px" y="0px"
	 viewBox="0 0 100 100" style="enable-background:new 0 0 100 100;" xml:space="preserve">
<title>circleRemove</title>
<path d="M6.3,98.5c-2.7,0-4.9-2.2-4.9-4.8c0-1.3,0.5-2.5,1.4-3.4L90.3,2.9c1.9-1.9,5-1.9,6.9,0s1.9,5,0,6.9L9.7,97.1
	C8.8,98,7.6,98.5,6.3,98.5z"/>
<path d="M93.7,98.5c-1.3,0-2.5-0.5-3.4-1.4L2.9,9.8C1,7.9,1,4.8,2.9,2.9s5-1.9,6.9,0l87.4,87.4c1.9,1.9,1.8,5-0.1,6.9
	C96.1,98,94.9,98.5,93.7,98.5z"/>
</svg>
